<?xml version="1.0" encoding="UTF-8"?>
<!DOCTYPE svg PUBLIC "-//W3C//DTD SVG 1.1//EN" "http://www.w3.org/Graphics/SVG/1.1/DTD/svg11.dtd">
<svg xmlns="http://www.w3.org/2000/svg" version="1.1" width="230px" height="225px" style="shape-rendering:geometricPrecision; text-rendering:geometricPrecision; image-rendering:optimizeQuality; fill-rule:evenodd; clip-rule:evenodd" xmlns:xlink="http://www.w3.org/1999/xlink">
<g><path style="opacity:0.972" fill="#fefffe" d="M 229.5,101.5 C 229.5,111.5 229.5,121.5 229.5,131.5C 222.089,174.911 198.423,205.911 158.5,224.5C 153.5,224.5 148.5,224.5 143.5,224.5C 142.699,209.878 142.199,195.211 142,180.5C 141.016,175.699 138.85,171.532 135.5,168C 179.204,160.793 195.371,135.626 184,92.5C 181.785,87.9003 178.952,83.7336 175.5,80C 179.343,70.1751 179.177,60.3417 175,50.5C 169.711,49.7698 164.544,50.6031 159.5,53C 153.862,55.7346 148.362,58.5679 143,61.5C 133.769,59.4487 124.436,58.1154 115,57.5C 105.545,58.0099 96.2118,59.3432 87,61.5C 80.7583,57.9633 74.2583,54.7966 67.5,52C 63.272,50.5877 58.9387,49.7544 54.5,49.5C 51.0318,59.3906 50.6985,69.3906 53.5,79.5C 40.9345,97.0161 38.4345,116.016 46,136.5C 51.461,150.825 61.6277,159.991 76.5,164C 82.5076,165.334 88.5076,166.668 94.5,168C 93.3333,169.167 92.1667,170.333 91,171.5C 89.1519,175.729 87.3186,179.896 85.5,184C 70.299,189.934 58.799,185.767 51,171.5C 46.2948,164.443 39.7948,161.61 31.5,163C 31.0426,163.414 30.7093,163.914 30.5,164.5C 39.7871,170.97 46.2871,179.637 50,190.5C 56.1523,197.113 63.8189,200.447 73,200.5C 77.2013,199.941 81.368,199.275 85.5,198.5C 86.802,207.226 86.802,215.892 85.5,224.5C 80.8333,224.5 76.1667,224.5 71.5,224.5C 31.4257,206.424 7.42575,175.758 -0.5,132.5C -0.5,122.5 -0.5,112.5 -0.5,102.5C 6.67916,59.1379 30.3458,28.3046 70.5,10C 122.355,-7.74479 166.855,3.42187 204,43.5C 217.452,60.6996 225.952,80.0329 229.5,101.5 Z"/></g>
</svg>
